<?xml version="1.0" encoding="utf-8"?>
<!-- Generator: Adobe Illustrator 28.0.0, SVG Export Plug-In . SVG Version: 6.00 Build 0)  -->
<svg version="1.1" id="Layer_1" xmlns:xodm="http://www.corel.com/coreldraw/odm/2003"
	 xmlns="http://www.w3.org/2000/svg" xmlns:xlink="http://www.w3.org/1999/xlink" x="0px" y="0px" viewBox="0 0 898 1635"
	 style="enable-background:new 0 0 898 1635;" xml:space="preserve">
<style type="text/css">
	.st0{fill:none;stroke:#5637F4;stroke-width:2.3608;stroke-linecap:round;stroke-linejoin:round;stroke-miterlimit:9.3471;}
	.st1{fill-rule:evenodd;clip-rule:evenodd;fill:#00E5FF;}
	.st2{clip-path:url(#SVGID_00000078003164336066171360000003483983921743456404_);}
	.st3{fill-rule:evenodd;clip-rule:evenodd;fill:#84FFFF;}
	.st4{fill-rule:evenodd;clip-rule:evenodd;fill:#76F9FF;}
	.st5{fill:none;}
	.st6{fill-rule:evenodd;clip-rule:evenodd;fill:#ECECED;}
</style>
<g id="Layer_x0020_1">
	<g id="_2216344375504">
		<path class="st0" d="M160.9,8.7c54.7-9,111.5-8.9,160.7-2c114.9,16.2,227,72.3,277,182.2 M730.3,601.1
			c72.9,107.2,162.5,177.6,166.5,387.3 M729.7,1452.8c-62.3,68-138.4,119.4-228.2,149.6c-97.9,32.9-201.7,37-303.9,24.4"/>
		<path class="st1" d="M772.8,681.7c-216.1-220-155.1-357.2-229.2-503C445.7-14,127.4-8.5,0,89.4V1543
			C879.3,1808.2,1003.8,916.9,772.8,681.7L772.8,681.7z"/>
		<g>
			<g>
				<defs>
					<path id="SVGID_1_" d="M772.8,681.7c-216.1-220-155.1-357.2-229.2-503C445.7-14,127.4-8.5,0,89.4V1543
						C879.3,1808.2,1003.8,916.9,772.8,681.7L772.8,681.7z"/>
				</defs>
				<clipPath id="SVGID_00000098203213621121817430000017429013965566664591_">
					<use xlink:href="#SVGID_1_"  style="overflow:visible;"/>
				</clipPath>
				<g style="clip-path:url(#SVGID_00000098203213621121817430000017429013965566664591_);">
					<g>
						<path id="_1" class="st3" d="M496.2,1308c-84-485.7,125.5-574.7,103.8-725.2C577.1,423.7,209.8,636.1,108.8,461
							c-86.6-150.1,26-273.4-60.4-329.3C-138.1,11.1-409.3,525.3-426.1,661.9l4.5,824.7C-60.4,1955.1,552.3,1632.3,496.2,1308
							L496.2,1308z"/>
						<path class="st4" d="M552.1,2939.6c225.5-711.7,569.3-685.4,645-902.9c80.1-230-562-200.3-575.7-506.1
							c-11.8-262.2,225.5-349.5,148.3-484.9C602.9,753.5-120.2,1255.9-237.8,1428l-568.7,1112.1
							C-647.4,3421.8,401.6,3414.7,552.1,2939.6L552.1,2939.6z"/>
					</g>
				</g>
			</g>
		</g>
		<path class="st5" d="M772.8,681.7c-216.1-220-155.1-357.2-229.2-503C445.7-14,127.4-8.5,0,89.4V1543
			C879.3,1808.2,1003.8,916.9,772.8,681.7L772.8,681.7z"/>
		<path class="st1" d="M734.4,455.2c-4.7,57.3-27.7,79.8-57.6,25.8C624.1,385.7,743.2,345.8,734.4,455.2L734.4,455.2z"/>
		<path class="st6" d="M331.5,360.1c-11.5,142.1-99.7,139.5-160.1,71.5C-7.9,229.9,353.5,88.7,331.5,360.1z"/>
	</g>
</g>
</svg>
