<?xml version="1.0" encoding="utf-8"?>
<!-- Generator: Adobe Illustrator 28.0.0, SVG Export Plug-In . SVG Version: 6.00 Build 0)  -->
<svg version="1.1" id="Layer_1" xmlns:xodm="http://www.corel.com/coreldraw/odm/2003"
	 xmlns="http://www.w3.org/2000/svg" xmlns:xlink="http://www.w3.org/1999/xlink" x="0px" y="0px" viewBox="0 0 1004 1435"
	 style="enable-background:new 0 0 1004 1435;" xml:space="preserve">
<style type="text/css">
	.st0{fill:none;stroke:#0600ED;stroke-miterlimit:10;}
	.st1{fill-rule:evenodd;clip-rule:evenodd;fill:#311B92;}
	.st2{clip-path:url(#SVGID_00000098196407106751467010000004523844063295583669_);}
	.st3{fill-rule:evenodd;clip-rule:evenodd;fill:#3423AD;}
	.st4{fill-rule:evenodd;clip-rule:evenodd;fill:#6F5EAA;}
	.st5{fill:none;}
	.st6{fill-rule:evenodd;clip-rule:evenodd;fill:#ECECED;}
</style>
<g id="Layer_x0020_1">
	<g id="_2215453498160">
		<path class="st0" d="M205.2,1378.3c-127.6-79.5-199.1-211.1-169.6-337 M114.2,904.6C236.1,781.1,269,727.4,154.7,598.1
			c-64.4-72.7-115.6-165.9-43.1-249.5 M242.3,261.7c111.6-49.3,256.9-89.1,391.2-137"/>
		<path class="st1" d="M129.7,921c182-180.6,117-240.6,41.2-324.4C-180.2,208,826.3,257.9,1003.9,0v1366.8
			C351.9,1595-151.4,1200,129.7,921L129.7,921z"/>
		<g>
			<g>
				<defs>
					<path id="SVGID_1_" d="M129.7,921c182-180.6,117-240.6,41.2-324.4C-180.2,208,826.3,257.9,1003.9,0v1366.8
						C351.9,1595-151.4,1200,129.7,921L129.7,921z"/>
				</defs>
				<clipPath id="SVGID_00000137129749183778768420000009247526521374986632_">
					<use xlink:href="#SVGID_1_"  style="overflow:visible;"/>
				</clipPath>
				<g style="clip-path:url(#SVGID_00000137129749183778768420000009247526521374986632_);">
					<g>
						<path id="_1" class="st3" d="M334.6,885.4c147-230-130.9-287.8,42-500.7C514.9,214.4,793,208,1222.8-77.7L1463,158.9
							l114.3,899.7C1170.7,1856.5,49.2,1331.8,334.6,885.4L334.6,885.4z"/>
						<path class="st4" d="M836.3,1289.9C644,1272.8,395.4,927.7,547.1,648.4c121.3-223.3,569.5-118.8,648-550.9l161.4,159
							l76.8,604.6C1160.2,1397.2,1041.4,1308.1,836.3,1289.9L836.3,1289.9z"/>
					</g>
				</g>
			</g>
		</g>
		<path class="st5" d="M129.7,921c182-180.6,117-240.6,41.2-324.4C-180.2,208,826.3,257.9,1003.9,0v1366.8
			C351.9,1595-151.4,1200,129.7,921L129.7,921z"/>
		<path class="st1" d="M189.4,751.8c0,109.9-232.2,40.4-182.2-57.3C79.7,552.6,189.4,642,189.4,751.8z"/>
		<path class="st6" d="M448.8,1276.5c-6.3,77.6-134.3,57.6-169,22.1C204.2,1221.3,460.8,1128.3,448.8,1276.5z"/>
		<path class="st6" d="M548.4,1335.5c14.8,35.9-47.2,49.1-57.2,31.3C469.3,1328.2,531.6,1294.8,548.4,1335.5z"/>
		<path class="st6" d="M1003.9,1228.7c-46.6,12.8-102,7.8-130-4.2c-86.2-37,38.9-190.5,130-188.7V1228.7z"/>
		<path class="st6" d="M866.1,1031.1c25,16.9-9.5,52-23.7,44.8C811.7,1060.2,837.7,1011.8,866.1,1031.1z"/>
	</g>
</g>
</svg>
