<?xml version="1.0" encoding="utf-8"?>
<!-- Generator: Adobe Illustrator 28.0.0, SVG Export Plug-In . SVG Version: 6.00 Build 0)  -->
<svg version="1.1" id="Layer_1" xmlns:xodm="http://www.corel.com/coreldraw/odm/2003"
	 xmlns="http://www.w3.org/2000/svg" xmlns:xlink="http://www.w3.org/1999/xlink" x="0px" y="0px" viewBox="0 0 769 872"
	 style="enable-background:new 0 0 769 872;" xml:space="preserve">
<style type="text/css">
	.st0{fill:none;stroke:#00E5FF;stroke-miterlimit:10;}
	.st1{fill-rule:evenodd;clip-rule:evenodd;fill:#00E5FF;}
	.st2{clip-path:url(#SVGID_00000054968914200336319050000007934503498870545282_);}
	.st3{fill-rule:evenodd;clip-rule:evenodd;fill:#8A98FF;}
	.st4{fill:none;}
</style>
<g id="Layer_x0020_1">
	<g id="_2216351727568">
		<path class="st0" d="M4.8,30.9C56.5,18.4,112.3,7.3,169.1,1 M573.8,116.6c46.4,51.5,76.1,114,100.7,178.1
			c13.6,35.4,25.7,72.2,39.2,108.2 M740.9,467.7c35.7,74.7,34.3,158.2,5.2,230.2 M723.3,742.9c-38,61.8-98.4,110-173.6,128.1
			 M66.6,867.2c-20.5-4.1-43.4-9.3-65.4-16.3"/>
		<path class="st1" d="M724.8,452.3c77.7,142-1.2,324.9-151,369.7c-178.4,53.4-481,37.4-572.6-3.9V70.7
			C596.4-107.3,612.7,247.1,724.8,452.3L724.8,452.3z"/>
		<g>
			<g>
				<defs>
					<path id="SVGID_1_" d="M724.8,452.3c77.7,142-1.2,324.9-151,369.7c-178.4,53.4-481,37.4-572.6-3.9V70.7
						C596.4-107.3,612.7,247.1,724.8,452.3L724.8,452.3z"/>
				</defs>
				<clipPath id="SVGID_00000101789865574693160160000007270059025731470248_">
					<use xlink:href="#SVGID_1_"  style="overflow:visible;"/>
				</clipPath>
				<g style="clip-path:url(#SVGID_00000101789865574693160160000007270059025731470248_);">
					<g>
						<path id="_1" class="st3" d="M31.3,95.8c240.4,308.1,511.2,279.6,590.1,373.4c83.4,99.2-183,179.5-137.2,315.1
							c93.9,277.9-763.7,334.6-950,211.7l-547.6-655C-962.9-62-129.2-109.9,31.3,95.8L31.3,95.8z"/>
					</g>
				</g>
			</g>
		</g>
		<path class="st4" d="M724.8,452.3c77.7,142-1.2,324.9-151,369.7c-178.4,53.4-481,37.4-572.6-3.9V70.7
			C596.4-107.3,612.7,247.1,724.8,452.3L724.8,452.3z"/>
	</g>
</g>
</svg>
