<?xml version="1.0" encoding="utf-8"?>
<!-- Generator: Adobe Illustrator 28.0.0, SVG Export Plug-In . SVG Version: 6.00 Build 0)  -->
<svg version="1.1" id="Layer_1" xmlns:xodm="http://www.corel.com/coreldraw/odm/2003"
	 xmlns="http://www.w3.org/2000/svg" xmlns:xlink="http://www.w3.org/1999/xlink" x="0px" y="0px" viewBox="0 0 776 799"
	 style="enable-background:new 0 0 776 799;" xml:space="preserve">
<style type="text/css">
	.st0{fill:none;stroke:#160099;stroke-miterlimit:10;}
	.st1{fill-rule:evenodd;clip-rule:evenodd;fill:#311B92;}
	.st2{clip-path:url(#SVGID_00000031178864815713486830000013093151141129988278_);}
	.st3{fill-rule:evenodd;clip-rule:evenodd;fill:#5347A8;}
	.st4{fill:none;}
	.st5{fill-rule:evenodd;clip-rule:evenodd;fill:#ECECED;}
</style>
<g id="Layer_x0020_1">
	<g id="_2216338231872">
		<path class="st0" d="M466.9,782.9c-45.9,12.5-90.5,17.4-138.1,14c-102.7-7.5-188.4-58.1-251.3-138.5 M41.6,140.7
			C93.2,67.9,171.2,28.1,257.2,11.2C326.6-2.4,402-1.6,477.6,9.4 M617.5,41C672.7,57.7,726,78.8,775,102.4"/>
		<path class="st1" d="M10.9,451.4C-80.8-31,431.7-39.4,774.9,118.3V739c-181.2-134.4-229.7,20.3-429.1,19.2
			C142.5,756.9,33.1,568,10.9,451.4L10.9,451.4z"/>
		<g>
			<g>
				<defs>
					<path id="SVGID_1_" d="M10.9,451.4C-80.8-31,431.7-39.4,774.9,118.3V739c-181.2-134.4-229.7,20.3-429.1,19.2
						C142.5,756.9,33.1,568,10.9,451.4L10.9,451.4z"/>
				</defs>
				<clipPath id="SVGID_00000005233172487926497460000004109026014152432549_">
					<use xlink:href="#SVGID_1_"  style="overflow:visible;"/>
				</clipPath>
				<g style="clip-path:url(#SVGID_00000005233172487926497460000004109026014152432549_);">
					<g>
						<path id="_1" class="st3" d="M267.1,692.6C154.9,613.1,125.7,311.5,319.3,194C474,100,712.5,325.2,915.9,87.3l42.3,155.8
							L788.5,643C428,874.9,386.8,777.4,267.1,692.6L267.1,692.6z"/>
					</g>
				</g>
			</g>
		</g>
		<path class="st4" d="M10.9,451.4C-80.8-31,431.7-39.4,774.9,118.3V739c-181.2-134.4-229.7,20.3-429.1,19.2
			C142.5,756.9,33.1,568,10.9,451.4L10.9,451.4z"/>
		<path class="st5" d="M415.8,661c35.2,72.9-143.6,63.7-175.2,26.8C192.2,631.2,375.8,578.3,415.8,661z"/>
		<path class="st1" d="M682.8,752.4c14.8,60.9-79.6,43.7-90.9,12.1C567.1,695.4,666,683.3,682.8,752.4z"/>
	</g>
</g>
</svg>
